<svg width="214" height="20" viewBox="0 0 214 20" fill="none" xmlns="http://www.w3.org/2000/svg">
<path d="M0.640022 14.8C0.400022 14.8 0.233355 14.7533 0.140022 14.66C0.0466888 14.5533 2.21133e-05 14.3733 2.21133e-05 14.12V1.27999C2.21133e-05 1.02665 0.0466888 0.85332 0.140022 0.759987C0.233355 0.65332 0.400022 0.599987 0.640022 0.599987H1.70002C1.96669 0.599987 2.16002 0.63332 2.28002 0.699987C2.41336 0.766654 2.52669 0.906654 2.62002 1.11999L6.30002 8.79999L9.98002 1.13999C10.0867 0.91332 10.1867 0.766654 10.28 0.699987C10.3867 0.63332 10.5667 0.599987 10.82 0.599987H11.98C12.2334 0.599987 12.4067 0.65332 12.5 0.759987C12.5934 0.85332 12.64 1.02665 12.64 1.27999V14.12C12.64 14.3733 12.5934 14.5533 12.5 14.66C12.4067 14.7533 12.2334 14.8 11.98 14.8H10.88C10.64 14.8 10.4734 14.7533 10.38 14.66C10.2867 14.5533 10.24 14.3733 10.24 14.12V8.01999C10.24 6.73999 10.3667 5.41332 10.62 4.03999H10.5C10.0867 5.37332 9.61336 6.58665 9.08002 7.67999L7.40002 11.08C7.30669 11.2667 7.20669 11.4 7.10002 11.48C7.00669 11.5467 6.86669 11.58 6.68002 11.58H5.90002C5.70002 11.58 5.55336 11.5467 5.46002 11.48C5.36669 11.4133 5.27336 11.28 5.18002 11.08L3.44002 7.67999C3.14669 7.10665 2.90002 6.55332 2.70002 6.01999C2.51336 5.47332 2.31336 4.80665 2.10002 4.01999H1.96002C2.22669 5.47332 2.36002 6.81332 2.36002 8.03999V14.12C2.36002 14.3733 2.31336 14.5533 2.22002 14.66C2.12669 14.7533 1.96002 14.8 1.72002 14.8H0.640022ZM16.0831 14.8C15.8565 14.8 15.6965 14.7533 15.6031 14.66C15.5098 14.5667 15.4631 14.4067 15.4631 14.18V5.03999C15.4631 4.81332 15.5098 4.65999 15.6031 4.57999C15.6965 4.48665 15.8565 4.43999 16.0831 4.43999H17.1631C17.3898 4.43999 17.5498 4.48665 17.6431 4.57999C17.7365 4.65999 17.7831 4.81332 17.7831 5.03999V14.18C17.7831 14.4067 17.7365 14.5667 17.6431 14.66C17.5498 14.7533 17.3898 14.8 17.1631 14.8H16.0831ZM15.3231 1.45999C15.3231 1.04665 15.3831 0.766654 15.5031 0.619987C15.6365 0.459987 15.8765 0.379987 16.2231 0.379987H17.0031C17.3498 0.379987 17.5831 0.459987 17.7031 0.619987C17.8365 0.766654 17.9031 1.04665 17.9031 1.45999V1.75999C17.9031 2.18665 17.8365 2.47332 17.7031 2.61999C17.5831 2.76665 17.3498 2.83999 17.0031 2.83999H16.2231C15.8765 2.83999 15.6365 2.76665 15.5031 2.61999C15.3831 2.47332 15.3231 2.18665 15.3231 1.75999V1.45999ZM24.085 15.1C22.725 15.1 21.7117 14.7533 21.045 14.06C20.3784 13.3667 20.045 12.3733 20.045 11.08V8.15999C20.045 6.87999 20.3984 5.89332 21.105 5.19999C21.8117 4.49332 22.865 4.13999 24.265 4.13999C25.2917 4.13999 26.1317 4.37999 26.785 4.85999C27.4384 5.32665 27.885 5.95999 28.125 6.75999C28.165 6.89332 28.185 7.01332 28.185 7.11999C28.185 7.37332 28.0317 7.54665 27.725 7.63999L26.865 7.91999C26.745 7.95999 26.6384 7.97999 26.545 7.97999C26.425 7.97999 26.325 7.93999 26.245 7.85999C26.1784 7.77999 26.1117 7.65332 26.045 7.47999C25.8984 7.03999 25.6784 6.71332 25.385 6.49999C25.0917 6.28665 24.6917 6.17999 24.185 6.17999C22.9717 6.17999 22.365 6.83332 22.365 8.13999V11.1C22.365 11.7267 22.5117 12.2133 22.805 12.56C23.1117 12.8933 23.5584 13.06 24.145 13.06C24.6384 13.06 25.025 12.9467 25.305 12.72C25.585 12.4933 25.805 12.1533 25.965 11.7C26.0717 11.38 26.2317 11.22 26.445 11.22C26.5384 11.22 26.6517 11.24 26.785 11.28L27.765 11.56C28.0717 11.64 28.225 11.8067 28.225 12.06C28.225 12.1933 28.1984 12.32 28.145 12.44C27.825 13.32 27.3384 13.9867 26.685 14.44C26.0317 14.88 25.165 15.1 24.085 15.1ZM30.8088 14.8C30.5954 14.8 30.4488 14.7533 30.3688 14.66C30.2888 14.5667 30.2488 14.4067 30.2488 14.18V0.619987C30.2488 0.393321 30.2888 0.233321 30.3688 0.139987C30.4488 0.0466541 30.5954 -1.23978e-05 30.8088 -1.23978e-05H31.9888C32.2021 -1.23978e-05 32.3488 0.0466541 32.4288 0.139987C32.5221 0.233321 32.5688 0.393321 32.5688 0.619987V4.41999C32.7154 4.35332 32.9621 4.29332 33.3088 4.23999C33.6688 4.17332 34.0754 4.13999 34.5288 4.13999C37.0488 4.13999 38.3088 5.44665 38.3088 8.05999V14.18C38.3088 14.4067 38.2688 14.5667 38.1888 14.66C38.1088 14.7533 37.9621 14.8 37.7488 14.8H36.5488C36.3354 14.8 36.1888 14.7533 36.1088 14.66C36.0288 14.5667 35.9888 14.4067 35.9888 14.18V8.21999C35.9888 7.53999 35.8421 7.04665 35.5488 6.73999C35.2688 6.41999 34.8221 6.25999 34.2088 6.25999C33.8354 6.25999 33.4954 6.28665 33.1888 6.33999C32.8954 6.39332 32.6888 6.45332 32.5688 6.51999V14.18C32.5688 14.4067 32.5221 14.5667 32.4288 14.66C32.3488 14.7533 32.2021 14.8 31.9888 14.8H30.8088ZM44.3542 15.1C42.9409 15.1 41.9142 14.84 41.2742 14.32C40.6342 13.8 40.3142 12.9733 40.3142 11.84C40.3142 10.72 40.6276 9.91332 41.2542 9.41999C41.8942 8.92665 42.9409 8.67999 44.3942 8.67999C44.6876 8.67999 44.9809 8.69332 45.2742 8.71999C45.5676 8.73332 45.8009 8.75332 45.9742 8.77999V7.97999C45.9742 7.31332 45.8542 6.84665 45.6142 6.57999C45.3742 6.31332 44.9542 6.17999 44.3542 6.17999C43.5142 6.17999 42.9276 6.51332 42.5942 7.17999C42.4609 7.43332 42.3009 7.55999 42.1142 7.55999C42.0209 7.55999 41.9076 7.52665 41.7742 7.45999L41.0542 7.11999C40.7742 6.99999 40.6342 6.83999 40.6342 6.63999C40.6342 6.51999 40.6676 6.39332 40.7342 6.25999C41.4142 4.84665 42.6209 4.13999 44.3542 4.13999C45.7676 4.13999 46.7742 4.47332 47.3742 5.13999C47.9742 5.80665 48.2742 6.78665 48.2742 8.07999V13.44C48.2742 13.7867 48.2276 14.0333 48.1342 14.18C48.0542 14.3267 47.8876 14.46 47.6342 14.58C46.9009 14.9267 45.8076 15.1 44.3542 15.1ZM42.6142 11.84C42.6142 12.3067 42.7409 12.6467 42.9942 12.86C43.2609 13.0733 43.6676 13.18 44.2142 13.18C44.9076 13.18 45.4409 13.1267 45.8142 13.02C45.8809 12.9933 45.9209 12.9667 45.9342 12.94C45.9609 12.9 45.9742 12.8333 45.9742 12.74V10.58C45.8676 10.58 45.6209 10.5667 45.2342 10.54C44.8609 10.5133 44.5342 10.5 44.2542 10.5C43.6942 10.5 43.2809 10.6133 43.0142 10.84C42.7476 11.0533 42.6142 11.3867 42.6142 11.84ZM54.5171 15.1C53.1171 15.1 52.0704 14.7133 51.3771 13.94C50.6971 13.1667 50.3571 12.1267 50.3571 10.82V8.45999C50.3571 7.07332 50.7171 6.00665 51.4371 5.25999C52.1571 4.51332 53.1904 4.13999 54.5371 4.13999C55.8971 4.13999 56.9237 4.52665 57.6171 5.29999C58.3237 6.07332 58.6771 7.06665 58.6771 8.27999V9.49999C58.6771 9.77999 58.6104 9.99332 58.4771 10.14C58.3571 10.2867 58.1437 10.36 57.8371 10.36H52.6571V11.1C52.6571 11.7533 52.8171 12.2533 53.1371 12.6C53.4571 12.9333 53.9237 13.1 54.5371 13.1C55.0304 13.1 55.4237 13.0133 55.7171 12.84C56.0104 12.6533 56.2504 12.3867 56.4371 12.04C56.5704 11.7733 56.7237 11.64 56.8971 11.64C57.0171 11.64 57.1504 11.6867 57.2971 11.78L58.0371 12.18C58.3037 12.34 58.4371 12.5267 58.4371 12.74C58.4371 12.8867 58.3904 13.0333 58.2971 13.18C57.9637 13.7933 57.4837 14.2667 56.8571 14.6C56.2304 14.9333 55.4504 15.1 54.5171 15.1ZM56.3971 8.57999V8.13999C56.3971 6.77999 55.7771 6.09999 54.5371 6.09999C53.9104 6.09999 53.4371 6.27999 53.1171 6.63999C52.8104 6.98665 52.6571 7.48665 52.6571 8.13999V8.57999H56.3971ZM61.2952 14.8C61.1218 14.8 61.0018 14.7533 60.9352 14.66C60.8818 14.5667 60.8552 14.4067 60.8552 14.18V0.619987C60.8552 0.393321 60.8818 0.233321 60.9352 0.139987C61.0018 0.0466541 61.1218 -1.23978e-05 61.2952 -1.23978e-05H62.7352C62.8952 -1.23978e-05 63.0085 0.0466541 63.0752 0.139987C63.1418 0.233321 63.1752 0.393321 63.1752 0.619987V14.18C63.1752 14.4067 63.1418 14.5667 63.0752 14.66C63.0085 14.7533 62.8952 14.8 62.7352 14.8H61.2952ZM74.9292 15.1C72.2626 15.1 70.5626 13.9867 69.8292 11.76C69.7892 11.6133 69.7692 11.5 69.7692 11.42C69.7692 11.1667 69.9226 10.9933 70.2292 10.9L71.4092 10.5C71.5692 10.4467 71.6759 10.42 71.7292 10.42C71.8492 10.42 71.9426 10.46 72.0092 10.54C72.0892 10.62 72.1626 10.7467 72.2292 10.92C72.4559 11.52 72.7959 11.98 73.2492 12.3C73.7159 12.6067 74.2759 12.76 74.9292 12.76C75.8359 12.76 76.5159 12.5933 76.9692 12.26C77.4359 11.9133 77.6692 11.3867 77.6692 10.68C77.6692 10.0533 77.4292 9.61332 76.9492 9.35999C76.4826 9.09332 75.7959 8.90665 74.8892 8.79999C73.9292 8.67999 73.1026 8.51332 72.4092 8.29999C71.7159 8.07332 71.1226 7.66665 70.6292 7.07999C70.1492 6.49332 69.9092 5.66665 69.9092 4.59999C69.9092 3.74665 70.1026 2.99999 70.4892 2.35999C70.8892 1.70665 71.4692 1.19999 72.2292 0.839988C73.0026 0.479987 73.9292 0.299987 75.0092 0.299987C76.2626 0.299987 77.2626 0.553321 78.0092 1.05999C78.7559 1.56665 79.3626 2.32665 79.8292 3.33999C79.8959 3.51332 79.9292 3.64665 79.9292 3.73999C79.9292 3.96665 79.7826 4.13999 79.4892 4.25999L78.3692 4.69999C78.2492 4.75332 78.1359 4.77999 78.0292 4.77999C77.9359 4.77999 77.8492 4.74665 77.7692 4.67999C77.7026 4.61332 77.6359 4.49999 77.5692 4.33999C77.0759 3.24665 76.2226 2.69999 75.0092 2.69999C74.1292 2.69999 73.4826 2.85332 73.0692 3.15999C72.6559 3.45332 72.4492 3.91332 72.4492 4.53999C72.4492 5.19332 72.7092 5.65332 73.2292 5.91999C73.7492 6.18665 74.5159 6.37332 75.5292 6.47999C76.9026 6.65332 78.0292 7.03999 78.9092 7.63999C79.7892 8.23999 80.2292 9.27999 80.2292 10.76C80.2292 12.0933 79.7626 13.1533 78.8292 13.94C77.9092 14.7133 76.6092 15.1 74.9292 15.1ZM86.901 14.8C85.901 14.84 85.1143 14.7667 84.541 14.58C83.981 14.3933 83.561 14.0133 83.281 13.44C83.0143 12.8667 82.881 12.0067 82.881 10.86V6.57999H81.801C81.5876 6.57999 81.441 6.53332 81.361 6.43999C81.281 6.34665 81.241 6.18665 81.241 5.95999V5.03999C81.241 4.81332 81.281 4.65999 81.361 4.57999C81.441 4.48665 81.5876 4.43999 81.801 4.43999H82.881V2.63999C82.881 2.41332 82.921 2.25999 83.001 2.17999C83.081 2.08665 83.2276 2.03999 83.441 2.03999H84.621C84.8476 2.03999 85.001 2.08665 85.081 2.17999C85.161 2.25999 85.201 2.41332 85.201 2.63999V4.43999H86.921C87.1343 4.43999 87.281 4.48665 87.361 4.57999C87.441 4.65999 87.481 4.81332 87.481 5.03999V5.95999C87.481 6.18665 87.441 6.34665 87.361 6.43999C87.281 6.53332 87.1343 6.57999 86.921 6.57999H85.201V10.74C85.201 11.34 85.2543 11.7733 85.361 12.04C85.4676 12.2933 85.6276 12.4533 85.841 12.52C86.0676 12.5867 86.421 12.6133 86.901 12.6C87.1143 12.5867 87.261 12.62 87.341 12.7C87.4343 12.78 87.481 12.92 87.481 13.12V14.16C87.481 14.3867 87.4343 14.5467 87.341 14.64C87.261 14.7333 87.1143 14.7867 86.901 14.8ZM93.1303 15.1C91.7303 15.1 90.6837 14.7133 89.9903 13.94C89.3103 13.1667 88.9703 12.1267 88.9703 10.82V8.45999C88.9703 7.07332 89.3303 6.00665 90.0503 5.25999C90.7703 4.51332 91.8037 4.13999 93.1503 4.13999C94.5103 4.13999 95.537 4.52665 96.2303 5.29999C96.937 6.07332 97.2903 7.06665 97.2903 8.27999V9.49999C97.2903 9.77999 97.2237 9.99332 97.0903 10.14C96.9703 10.2867 96.757 10.36 96.4503 10.36H91.2703V11.1C91.2703 11.7533 91.4303 12.2533 91.7503 12.6C92.0703 12.9333 92.537 13.1 93.1503 13.1C93.6437 13.1 94.037 13.0133 94.3303 12.84C94.6237 12.6533 94.8637 12.3867 95.0503 12.04C95.1837 11.7733 95.337 11.64 95.5103 11.64C95.6303 11.64 95.7637 11.6867 95.9103 11.78L96.6503 12.18C96.917 12.34 97.0503 12.5267 97.0503 12.74C97.0503 12.8867 97.0037 13.0333 96.9103 13.18C96.577 13.7933 96.097 14.2667 95.4703 14.6C94.8437 14.9333 94.0637 15.1 93.1303 15.1ZM95.0103 8.57999V8.13999C95.0103 6.77999 94.3903 6.09999 93.1503 6.09999C92.5237 6.09999 92.0503 6.27999 91.7303 6.63999C91.4237 6.98665 91.2703 7.48665 91.2703 8.13999V8.57999H95.0103ZM102.134 14.82C101.921 14.82 101.754 14.78 101.634 14.7C101.514 14.62 101.421 14.4733 101.354 14.26L98.2941 5.15999C98.2408 5.01332 98.2141 4.87999 98.2141 4.75999C98.2141 4.63999 98.2541 4.55999 98.3341 4.51999C98.4274 4.46665 98.5674 4.43999 98.7541 4.43999H99.7541C100.061 4.43999 100.281 4.47999 100.414 4.55999C100.547 4.63999 100.647 4.80665 100.714 5.05999L102.194 9.85999C102.354 10.42 102.534 11.2 102.734 12.2H102.834C103.007 11.3333 103.181 10.5533 103.354 9.85999L104.834 5.05999C104.901 4.80665 104.987 4.63999 105.094 4.55999C105.201 4.47999 105.421 4.43999 105.754 4.43999H106.734C106.934 4.43999 107.074 4.46665 107.154 4.51999C107.247 4.55999 107.294 4.63999 107.294 4.75999C107.294 4.87999 107.267 5.01332 107.214 5.15999L104.094 14.26C104.027 14.4733 103.934 14.62 103.814 14.7C103.707 14.78 103.547 14.82 103.334 14.82H102.134ZM112.486 15.1C111.086 15.1 110.039 14.7133 109.346 13.94C108.666 13.1667 108.326 12.1267 108.326 10.82V8.45999C108.326 7.07332 108.686 6.00665 109.406 5.25999C110.126 4.51332 111.159 4.13999 112.506 4.13999C113.866 4.13999 114.892 4.52665 115.586 5.29999C116.292 6.07332 116.646 7.06665 116.646 8.27999V9.49999C116.646 9.77999 116.579 9.99332 116.446 10.14C116.326 10.2867 116.112 10.36 115.806 10.36H110.626V11.1C110.626 11.7533 110.786 12.2533 111.106 12.6C111.426 12.9333 111.892 13.1 112.506 13.1C112.999 13.1 113.392 13.0133 113.686 12.84C113.979 12.6533 114.219 12.3867 114.406 12.04C114.539 11.7733 114.692 11.64 114.866 11.64C114.986 11.64 115.119 11.6867 115.266 11.78L116.006 12.18C116.272 12.34 116.406 12.5267 116.406 12.74C116.406 12.8867 116.359 13.0333 116.266 13.18C115.932 13.7933 115.452 14.2667 114.826 14.6C114.199 14.9333 113.419 15.1 112.486 15.1ZM114.366 8.57999V8.13999C114.366 6.77999 113.746 6.09999 112.506 6.09999C111.879 6.09999 111.406 6.27999 111.086 6.63999C110.779 6.98665 110.626 7.48665 110.626 8.13999V8.57999H114.366ZM118.73 5.49999C118.53 5.49999 118.403 5.46665 118.35 5.39999C118.297 5.33332 118.283 5.20665 118.31 5.01999L118.81 1.31999C118.85 1.03999 118.923 0.85332 119.03 0.759987C119.15 0.65332 119.35 0.599987 119.63 0.599987H120.53C120.983 0.599987 121.21 0.739987 121.21 1.01999C121.21 1.09999 121.19 1.19999 121.15 1.31999L119.93 4.87999C119.85 5.11999 119.757 5.28665 119.65 5.37999C119.543 5.45999 119.383 5.49999 119.17 5.49999H118.73ZM126.23 15.1C125.163 15.1 124.303 14.9067 123.65 14.52C122.996 14.1333 122.523 13.5267 122.23 12.7C122.176 12.54 122.15 12.4267 122.15 12.36C122.15 12.12 122.29 11.96 122.57 11.88L123.67 11.56C123.79 11.52 123.896 11.5 123.99 11.5C124.083 11.5 124.163 11.5333 124.23 11.6C124.296 11.6667 124.363 11.78 124.43 11.94C124.563 12.3267 124.776 12.6067 125.07 12.78C125.376 12.9533 125.763 13.04 126.23 13.04C127.376 13.04 127.95 12.6467 127.95 11.86C127.95 11.42 127.803 11.1133 127.51 10.94C127.23 10.7533 126.723 10.62 125.99 10.54C125.243 10.46 124.603 10.3267 124.07 10.14C123.55 9.95332 123.123 9.63332 122.79 9.17999C122.47 8.72665 122.31 8.10665 122.31 7.31999C122.31 6.35999 122.65 5.59332 123.33 5.01999C124.023 4.44665 124.976 4.15999 126.19 4.15999C127.203 4.15999 128.01 4.33999 128.61 4.69999C129.21 5.05999 129.663 5.58665 129.97 6.27999C130.036 6.45332 130.07 6.59332 130.07 6.69999C130.07 6.92665 129.936 7.08665 129.67 7.17999L128.77 7.51999C128.623 7.57332 128.503 7.59999 128.41 7.59999C128.316 7.59999 128.236 7.57332 128.17 7.51999C128.116 7.46665 128.056 7.36665 127.99 7.21999C127.843 6.89999 127.623 6.65332 127.33 6.47999C127.05 6.29332 126.67 6.19999 126.19 6.19999C125.67 6.19999 125.276 6.29999 125.01 6.49999C124.743 6.69999 124.61 6.97332 124.61 7.31999C124.61 7.77332 124.75 8.07999 125.03 8.23999C125.31 8.39999 125.81 8.51999 126.53 8.59999C127.73 8.71999 128.65 9.01999 129.29 9.49999C129.93 9.97999 130.25 10.7533 130.25 11.82C130.25 12.82 129.903 13.62 129.21 14.22C128.516 14.8067 127.523 15.1 126.23 15.1ZM135.607 14.8C135.274 14.8 135.107 14.6867 135.107 14.46C135.107 14.4067 135.134 14.3 135.187 14.14L139.727 1.13999C139.807 0.91332 139.901 0.766654 140.007 0.699987C140.114 0.619987 140.281 0.579987 140.507 0.579987H141.787C142.014 0.579987 142.181 0.619987 142.287 0.699987C142.407 0.766654 142.507 0.906654 142.587 1.11999L147.107 14.14C147.147 14.26 147.167 14.3667 147.167 14.46C147.167 14.6867 147.001 14.8 146.667 14.8H145.467C145.107 14.8 144.847 14.76 144.687 14.68C144.541 14.6 144.441 14.44 144.387 14.2L143.587 11.66H138.607L137.807 14.2C137.741 14.44 137.634 14.6 137.487 14.68C137.341 14.76 137.094 14.8 136.747 14.8H135.607ZM142.907 9.53999L141.647 5.35999C141.381 4.41332 141.221 3.63999 141.167 3.03999H141.047C140.954 3.78665 140.801 4.55999 140.587 5.35999L139.307 9.53999H142.907ZM149.603 14.8C149.417 14.8 149.27 14.76 149.163 14.68C149.07 14.5867 149.023 14.42 149.023 14.18V1.19999C149.023 0.959988 149.07 0.799987 149.163 0.719987C149.257 0.639987 149.403 0.599987 149.603 0.599987H150.983C151.17 0.599987 151.303 0.639987 151.383 0.719987C151.477 0.799987 151.523 0.959988 151.523 1.19999V14.18C151.523 14.42 151.47 14.5867 151.363 14.68C151.27 14.76 151.123 14.8 150.923 14.8H149.603ZM163.864 15.1C162.184 15.1 160.878 14.64 159.944 13.72C159.024 12.7867 158.564 11.5067 158.564 9.87999V5.49999C158.564 3.88665 159.024 2.61999 159.944 1.69999C160.878 0.766654 162.184 0.299987 163.864 0.299987C166.491 0.299987 168.178 1.41332 168.924 3.63999C168.978 3.75999 169.004 3.87999 169.004 3.99999C169.004 4.22665 168.851 4.39332 168.544 4.49999L167.404 4.85999C167.284 4.89999 167.178 4.91999 167.084 4.91999C166.964 4.91999 166.871 4.88665 166.804 4.81999C166.738 4.73999 166.671 4.60665 166.604 4.41999C166.404 3.80665 166.084 3.35999 165.644 3.07999C165.204 2.78665 164.618 2.63999 163.884 2.63999C162.018 2.63999 161.084 3.58665 161.084 5.47999V9.89999C161.084 11.8067 162.031 12.76 163.924 12.76C164.618 12.76 165.178 12.6067 165.604 12.3C166.031 11.9933 166.344 11.54 166.544 10.94C166.664 10.5933 166.824 10.42 167.024 10.42C167.064 10.42 167.178 10.4467 167.364 10.5L168.544 10.88C168.851 10.9733 169.004 11.1467 169.004 11.4C169.004 11.48 168.984 11.5933 168.944 11.74C168.198 13.98 166.504 15.1 163.864 15.1ZM171.53 14.8C171.356 14.8 171.236 14.7533 171.17 14.66C171.116 14.5667 171.09 14.4067 171.09 14.18V0.619987C171.09 0.393321 171.116 0.233321 171.17 0.139987C171.236 0.0466541 171.356 -1.23978e-05 171.53 -1.23978e-05H172.97C173.13 -1.23978e-05 173.243 0.0466541 173.31 0.139987C173.376 0.233321 173.41 0.393321 173.41 0.619987V14.18C173.41 14.4067 173.376 14.5667 173.31 14.66C173.243 14.7533 173.13 14.8 172.97 14.8H171.53ZM179.589 15.1C178.175 15.1 177.149 14.84 176.509 14.32C175.869 13.8 175.549 12.9733 175.549 11.84C175.549 10.72 175.862 9.91332 176.489 9.41999C177.129 8.92665 178.175 8.67999 179.629 8.67999C179.922 8.67999 180.215 8.69332 180.509 8.71999C180.802 8.73332 181.035 8.75332 181.209 8.77999V7.97999C181.209 7.31332 181.089 6.84665 180.849 6.57999C180.609 6.31332 180.189 6.17999 179.589 6.17999C178.749 6.17999 178.162 6.51332 177.829 7.17999C177.695 7.43332 177.535 7.55999 177.349 7.55999C177.255 7.55999 177.142 7.52665 177.009 7.45999L176.289 7.11999C176.009 6.99999 175.869 6.83999 175.869 6.63999C175.869 6.51999 175.902 6.39332 175.969 6.25999C176.649 4.84665 177.855 4.13999 179.589 4.13999C181.002 4.13999 182.009 4.47332 182.609 5.13999C183.209 5.80665 183.509 6.78665 183.509 8.07999V13.44C183.509 13.7867 183.462 14.0333 183.369 14.18C183.289 14.3267 183.122 14.46 182.869 14.58C182.135 14.9267 181.042 15.1 179.589 15.1ZM177.849 11.84C177.849 12.3067 177.975 12.6467 178.229 12.86C178.495 13.0733 178.902 13.18 179.449 13.18C180.142 13.18 180.675 13.1267 181.049 13.02C181.115 12.9933 181.155 12.9667 181.169 12.94C181.195 12.9 181.209 12.8333 181.209 12.74V10.58C181.102 10.58 180.855 10.5667 180.469 10.54C180.095 10.5133 179.769 10.5 179.489 10.5C178.929 10.5 178.515 10.6133 178.249 10.84C177.982 11.0533 177.849 11.3867 177.849 11.84ZM186.451 14.8C186.265 14.8 186.131 14.7533 186.051 14.66C185.971 14.5667 185.931 14.4067 185.931 14.18V6.09999C185.931 5.76665 185.971 5.51999 186.051 5.35999C186.145 5.19999 186.325 5.06665 186.591 4.95999C187.418 4.61332 188.538 4.43999 189.951 4.43999H190.891C191.091 4.43999 191.231 4.47999 191.311 4.55999C191.391 4.63999 191.431 4.77999 191.431 4.97999V5.93999C191.431 6.16665 191.391 6.32665 191.311 6.41999C191.231 6.49999 191.091 6.53999 190.891 6.53999H189.831C189.271 6.53999 188.798 6.61332 188.411 6.75999C188.305 6.82665 188.251 6.92665 188.251 7.05999V14.18C188.251 14.4067 188.211 14.5667 188.131 14.66C188.051 14.7533 187.911 14.8 187.711 14.8H186.451ZM193.681 14.8C193.454 14.8 193.294 14.7533 193.201 14.66C193.107 14.5667 193.061 14.4067 193.061 14.18V5.03999C193.061 4.81332 193.107 4.65999 193.201 4.57999C193.294 4.48665 193.454 4.43999 193.681 4.43999H194.761C194.987 4.43999 195.147 4.48665 195.241 4.57999C195.334 4.65999 195.381 4.81332 195.381 5.03999V14.18C195.381 14.4067 195.334 14.5667 195.241 14.66C195.147 14.7533 194.987 14.8 194.761 14.8H193.681ZM192.921 1.45999C192.921 1.04665 192.981 0.766654 193.101 0.619987C193.234 0.459987 193.474 0.379987 193.821 0.379987H194.601C194.947 0.379987 195.181 0.459987 195.301 0.619987C195.434 0.766654 195.501 1.04665 195.501 1.45999V1.75999C195.501 2.18665 195.434 2.47332 195.301 2.61999C195.181 2.76665 194.947 2.83999 194.601 2.83999H193.821C193.474 2.83999 193.234 2.76665 193.101 2.61999C192.981 2.47332 192.921 2.18665 192.921 1.75999V1.45999ZM202.663 14.8C201.663 14.84 200.876 14.7667 200.303 14.58C199.743 14.3933 199.323 14.0133 199.043 13.44C198.776 12.8667 198.643 12.0067 198.643 10.86V6.57999H197.563C197.349 6.57999 197.203 6.53332 197.123 6.43999C197.043 6.34665 197.003 6.18665 197.003 5.95999V5.03999C197.003 4.81332 197.043 4.65999 197.123 4.57999C197.203 4.48665 197.349 4.43999 197.563 4.43999H198.643V2.63999C198.643 2.41332 198.683 2.25999 198.763 2.17999C198.843 2.08665 198.989 2.03999 199.203 2.03999H200.383C200.609 2.03999 200.763 2.08665 200.843 2.17999C200.923 2.25999 200.963 2.41332 200.963 2.63999V4.43999H202.683C202.896 4.43999 203.043 4.48665 203.123 4.57999C203.203 4.65999 203.243 4.81332 203.243 5.03999V5.95999C203.243 6.18665 203.203 6.34665 203.123 6.43999C203.043 6.53332 202.896 6.57999 202.683 6.57999H200.963V10.74C200.963 11.34 201.016 11.7733 201.123 12.04C201.229 12.2933 201.389 12.4533 201.603 12.52C201.829 12.5867 202.183 12.6133 202.663 12.6C202.876 12.5867 203.023 12.62 203.103 12.7C203.196 12.78 203.243 12.92 203.243 13.12V14.16C203.243 14.3867 203.196 14.5467 203.103 14.64C203.023 14.7333 202.876 14.7867 202.663 14.8ZM209.052 19.52C207.239 19.52 205.979 18.8733 205.272 17.58C205.179 17.4333 205.132 17.2867 205.132 17.14C205.132 16.9267 205.259 16.7533 205.512 16.62L206.352 16.18C206.512 16.1 206.645 16.06 206.752 16.06C206.912 16.06 207.072 16.1933 207.232 16.46C207.565 17.1133 208.159 17.44 209.012 17.44C209.625 17.44 210.072 17.2667 210.352 16.92C210.632 16.5867 210.772 16.06 210.772 15.34V14.32C210.159 14.5067 209.499 14.6 208.792 14.6C207.525 14.6 206.579 14.2533 205.952 13.56C205.325 12.8667 205.012 11.8733 205.012 10.58V5.03999C205.012 4.81332 205.052 4.65999 205.132 4.57999C205.212 4.48665 205.359 4.43999 205.572 4.43999H206.752C206.979 4.43999 207.132 4.48665 207.212 4.57999C207.292 4.65999 207.332 4.81332 207.332 5.03999V10.5C207.332 11.18 207.472 11.68 207.752 12C208.032 12.32 208.485 12.48 209.112 12.48C209.725 12.48 210.272 12.3867 210.752 12.2V5.03999C210.752 4.81332 210.792 4.65999 210.872 4.57999C210.952 4.48665 211.099 4.43999 211.312 4.43999H212.512C212.725 4.43999 212.872 4.48665 212.952 4.57999C213.032 4.65999 213.072 4.81332 213.072 5.03999V15.14C213.072 16.5133 212.745 17.5867 212.092 18.36C211.452 19.1333 210.439 19.52 209.052 19.52Z" fill="url(#paint0_linear_872_299)"/>
<defs>
<linearGradient id="paint0_linear_872_299" x1="23.807" y1="0.799987" x2="30.2011" y2="43.6531" gradientUnits="userSpaceOnUse">
<stop stop-color="#860471"/>
<stop offset="1" stop-color="#6368DA"/>
</linearGradient>
</defs>
</svg>
