<svg width="132" height="47" viewBox="0 0 132 47" fill="none" xmlns="http://www.w3.org/2000/svg">
<path d="M1.9 14.8C1.66 14.8 1.49333 14.7533 1.4 14.66C1.30667 14.5533 1.26 14.3733 1.26 14.12V1.28C1.26 1.02667 1.30667 0.853333 1.4 0.76C1.49333 0.653333 1.66 0.599999 1.9 0.599999H2.96C3.22667 0.599999 3.42 0.633333 3.54 0.699999C3.67333 0.766666 3.78667 0.906666 3.88 1.12L7.56 8.8L11.24 1.14C11.3467 0.913333 11.4467 0.766666 11.54 0.699999C11.6467 0.633333 11.8267 0.599999 12.08 0.599999H13.24C13.4933 0.599999 13.6667 0.653333 13.76 0.76C13.8533 0.853333 13.9 1.02667 13.9 1.28V14.12C13.9 14.3733 13.8533 14.5533 13.76 14.66C13.6667 14.7533 13.4933 14.8 13.24 14.8H12.14C11.9 14.8 11.7333 14.7533 11.64 14.66C11.5467 14.5533 11.5 14.3733 11.5 14.12V8.02C11.5 6.74 11.6267 5.41333 11.88 4.04H11.76C11.3467 5.37333 10.8733 6.58667 10.34 7.68L8.66 11.08C8.56667 11.2667 8.46667 11.4 8.36 11.48C8.26667 11.5467 8.12667 11.58 7.94 11.58H7.16C6.96 11.58 6.81333 11.5467 6.72 11.48C6.62667 11.4133 6.53333 11.28 6.44 11.08L4.7 7.68C4.40667 7.10667 4.16 6.55333 3.96 6.02C3.77333 5.47333 3.57333 4.80667 3.36 4.02H3.22C3.48667 5.47333 3.62 6.81333 3.62 8.04V14.12C3.62 14.3733 3.57333 14.5533 3.48 14.66C3.38667 14.7533 3.22 14.8 2.98 14.8H1.9Z" fill="url(#paint0_linear_814_282)"/>
<path d="M17.3431 14.8C17.1165 14.8 16.9565 14.7533 16.8631 14.66C16.7698 14.5667 16.7231 14.4067 16.7231 14.18V5.04C16.7231 4.81333 16.7698 4.66 16.8631 4.58C16.9565 4.48667 17.1165 4.44 17.3431 4.44H18.4231C18.6498 4.44 18.8098 4.48667 18.9031 4.58C18.9965 4.66 19.0431 4.81333 19.0431 5.04V14.18C19.0431 14.4067 18.9965 14.5667 18.9031 14.66C18.8098 14.7533 18.6498 14.8 18.4231 14.8H17.3431ZM16.5831 1.46C16.5831 1.04667 16.6431 0.766666 16.7631 0.619999C16.8965 0.46 17.1365 0.38 17.4831 0.38H18.2631C18.6098 0.38 18.8431 0.46 18.9631 0.619999C19.0965 0.766666 19.1631 1.04667 19.1631 1.46V1.76C19.1631 2.18667 19.0965 2.47333 18.9631 2.62C18.8431 2.76667 18.6098 2.84 18.2631 2.84H17.4831C17.1365 2.84 16.8965 2.76667 16.7631 2.62C16.6431 2.47333 16.5831 2.18667 16.5831 1.76V1.46Z" fill="url(#paint1_linear_814_282)"/>
<path d="M25.345 15.1C23.985 15.1 22.9717 14.7533 22.305 14.06C21.6383 13.3667 21.305 12.3733 21.305 11.08V8.16C21.305 6.88 21.6583 5.89333 22.365 5.2C23.0717 4.49333 24.125 4.14 25.525 4.14C26.5517 4.14 27.3917 4.38 28.045 4.86C28.6983 5.32667 29.145 5.96 29.385 6.76C29.425 6.89333 29.445 7.01333 29.445 7.12C29.445 7.37333 29.2917 7.54667 28.985 7.64L28.125 7.92C28.005 7.96 27.8983 7.98 27.805 7.98C27.685 7.98 27.585 7.94 27.505 7.86C27.4383 7.78 27.3717 7.65333 27.305 7.48C27.1583 7.04 26.9383 6.71333 26.645 6.5C26.3517 6.28667 25.9517 6.18 25.445 6.18C24.2317 6.18 23.625 6.83333 23.625 8.14V11.1C23.625 11.7267 23.7717 12.2133 24.065 12.56C24.3717 12.8933 24.8183 13.06 25.405 13.06C25.8983 13.06 26.285 12.9467 26.565 12.72C26.845 12.4933 27.065 12.1533 27.225 11.7C27.3317 11.38 27.4917 11.22 27.705 11.22C27.7983 11.22 27.9117 11.24 28.045 11.28L29.025 11.56C29.3317 11.64 29.485 11.8067 29.485 12.06C29.485 12.1933 29.4583 12.32 29.405 12.44C29.085 13.32 28.5983 13.9867 27.945 14.44C27.2917 14.88 26.425 15.1 25.345 15.1Z" fill="url(#paint2_linear_814_282)"/>
<path d="M32.0687 14.8C31.8554 14.8 31.7087 14.7533 31.6287 14.66C31.5487 14.5667 31.5088 14.4067 31.5088 14.18V0.619999C31.5088 0.393333 31.5487 0.233333 31.6287 0.139999C31.7087 0.0466665 31.8554 0 32.0687 0H33.2487C33.4621 0 33.6088 0.0466665 33.6888 0.139999C33.7821 0.233333 33.8288 0.393333 33.8288 0.619999V4.42C33.9754 4.35333 34.2221 4.29333 34.5687 4.24C34.9287 4.17333 35.3354 4.14 35.7887 4.14C38.3087 4.14 39.5687 5.44667 39.5687 8.06V14.18C39.5687 14.4067 39.5287 14.5667 39.4487 14.66C39.3687 14.7533 39.2221 14.8 39.0088 14.8H37.8088C37.5954 14.8 37.4488 14.7533 37.3688 14.66C37.2888 14.5667 37.2487 14.4067 37.2487 14.18V8.22C37.2487 7.54 37.1021 7.04667 36.8088 6.74C36.5287 6.42 36.0821 6.26 35.4688 6.26C35.0954 6.26 34.7554 6.28667 34.4487 6.34C34.1554 6.39333 33.9488 6.45333 33.8288 6.52V14.18C33.8288 14.4067 33.7821 14.5667 33.6888 14.66C33.6088 14.7533 33.4621 14.8 33.2487 14.8H32.0687Z" fill="url(#paint3_linear_814_282)"/>
<path d="M45.6142 15.1C44.2009 15.1 43.1742 14.84 42.5342 14.32C41.8942 13.8 41.5742 12.9733 41.5742 11.84C41.5742 10.72 41.8876 9.91333 42.5142 9.42C43.1542 8.92667 44.2009 8.68 45.6542 8.68C45.9476 8.68 46.2409 8.69333 46.5342 8.72C46.8276 8.73333 47.0609 8.75333 47.2342 8.78V7.98C47.2342 7.31333 47.1142 6.84667 46.8742 6.58C46.6342 6.31333 46.2142 6.18 45.6142 6.18C44.7742 6.18 44.1876 6.51333 43.8542 7.18C43.7209 7.43333 43.5609 7.56 43.3742 7.56C43.2809 7.56 43.1676 7.52667 43.0342 7.46L42.3142 7.12C42.0342 7 41.8942 6.84 41.8942 6.64C41.8942 6.52 41.9276 6.39333 41.9942 6.26C42.6742 4.84667 43.8809 4.14 45.6142 4.14C47.0276 4.14 48.0342 4.47333 48.6342 5.14C49.2342 5.80667 49.5342 6.78667 49.5342 8.08V13.44C49.5342 13.7867 49.4876 14.0333 49.3942 14.18C49.3142 14.3267 49.1476 14.46 48.8942 14.58C48.1609 14.9267 47.0676 15.1 45.6142 15.1ZM43.8742 11.84C43.8742 12.3067 44.0009 12.6467 44.2542 12.86C44.5209 13.0733 44.9276 13.18 45.4742 13.18C46.1676 13.18 46.7009 13.1267 47.0742 13.02C47.1409 12.9933 47.1809 12.9667 47.1942 12.94C47.2209 12.9 47.2342 12.8333 47.2342 12.74V10.58C47.1276 10.58 46.8809 10.5667 46.4942 10.54C46.1209 10.5133 45.7942 10.5 45.5142 10.5C44.9542 10.5 44.5409 10.6133 44.2742 10.84C44.0076 11.0533 43.8742 11.3867 43.8742 11.84Z" fill="url(#paint4_linear_814_282)"/>
<path d="M55.777 15.1C54.377 15.1 53.3304 14.7133 52.637 13.94C51.957 13.1667 51.617 12.1267 51.617 10.82V8.46C51.617 7.07333 51.977 6.00667 52.697 5.26C53.417 4.51333 54.4504 4.14 55.797 4.14C57.157 4.14 58.1837 4.52667 58.877 5.3C59.5837 6.07333 59.937 7.06667 59.937 8.28V9.5C59.937 9.78 59.8704 9.99333 59.737 10.14C59.617 10.2867 59.4037 10.36 59.097 10.36H53.917V11.1C53.917 11.7533 54.077 12.2533 54.397 12.6C54.717 12.9333 55.1837 13.1 55.797 13.1C56.2904 13.1 56.6837 13.0133 56.977 12.84C57.2704 12.6533 57.5104 12.3867 57.697 12.04C57.8304 11.7733 57.9837 11.64 58.157 11.64C58.277 11.64 58.4104 11.6867 58.557 11.78L59.297 12.18C59.5637 12.34 59.697 12.5267 59.697 12.74C59.697 12.8867 59.6504 13.0333 59.557 13.18C59.2237 13.7933 58.7437 14.2667 58.117 14.6C57.4904 14.9333 56.7104 15.1 55.777 15.1ZM57.657 8.58V8.14C57.657 6.78 57.037 6.1 55.797 6.1C55.1704 6.1 54.697 6.28 54.377 6.64C54.0704 6.98667 53.917 7.48667 53.917 8.14V8.58H57.657Z" fill="url(#paint5_linear_814_282)"/>
<path d="M62.5552 14.8C62.3818 14.8 62.2618 14.7533 62.1952 14.66C62.1418 14.5667 62.1152 14.4067 62.1152 14.18V0.619999C62.1152 0.393333 62.1418 0.233333 62.1952 0.139999C62.2618 0.0466665 62.3818 0 62.5552 0H63.9952C64.1552 0 64.2685 0.0466665 64.3352 0.139999C64.4018 0.233333 64.4352 0.393333 64.4352 0.619999V14.18C64.4352 14.4067 64.4018 14.5667 64.3352 14.66C64.2685 14.7533 64.1552 14.8 63.9952 14.8H62.5552Z" fill="url(#paint6_linear_814_282)"/>
<path d="M76.1892 15.1C73.5225 15.1 71.8226 13.9867 71.0892 11.76C71.0492 11.6133 71.0292 11.5 71.0292 11.42C71.0292 11.1667 71.1826 10.9933 71.4892 10.9L72.6692 10.5C72.8292 10.4467 72.9359 10.42 72.9892 10.42C73.1092 10.42 73.2026 10.46 73.2692 10.54C73.3492 10.62 73.4226 10.7467 73.4892 10.92C73.7159 11.52 74.0559 11.98 74.5092 12.3C74.9759 12.6067 75.5359 12.76 76.1892 12.76C77.0959 12.76 77.7759 12.5933 78.2292 12.26C78.6959 11.9133 78.9292 11.3867 78.9292 10.68C78.9292 10.0533 78.6892 9.61333 78.2092 9.36C77.7426 9.09333 77.0559 8.90667 76.1492 8.8C75.1892 8.68 74.3626 8.51333 73.6692 8.3C72.9759 8.07333 72.3826 7.66667 71.8892 7.08C71.4092 6.49333 71.1692 5.66667 71.1692 4.6C71.1692 3.74667 71.3626 3 71.7492 2.36C72.1492 1.70667 72.7292 1.2 73.4892 0.84C74.2626 0.48 75.1892 0.3 76.2692 0.3C77.5226 0.3 78.5226 0.553333 79.2692 1.06C80.0159 1.56667 80.6226 2.32667 81.0892 3.34C81.1559 3.51333 81.1892 3.64667 81.1892 3.74C81.1892 3.96667 81.0426 4.14 80.7492 4.26L79.6292 4.7C79.5092 4.75333 79.3959 4.78 79.2892 4.78C79.1959 4.78 79.1092 4.74667 79.0292 4.68C78.9626 4.61333 78.8959 4.5 78.8292 4.34C78.3359 3.24667 77.4826 2.7 76.2692 2.7C75.3892 2.7 74.7425 2.85333 74.3292 3.16C73.9159 3.45333 73.7092 3.91333 73.7092 4.54C73.7092 5.19333 73.9692 5.65333 74.4892 5.92C75.0092 6.18667 75.7759 6.37333 76.7892 6.48C78.1626 6.65333 79.2892 7.04 80.1692 7.64C81.0492 8.24 81.4892 9.28 81.4892 10.76C81.4892 12.0933 81.0226 13.1533 80.0892 13.94C79.1692 14.7133 77.8692 15.1 76.1892 15.1Z" fill="url(#paint7_linear_814_282)"/>
<path d="M88.1609 14.8C87.1609 14.84 86.3743 14.7667 85.8009 14.58C85.2409 14.3933 84.8209 14.0133 84.5409 13.44C84.2743 12.8667 84.1409 12.0067 84.1409 10.86V6.58H83.0609C82.8476 6.58 82.7009 6.53333 82.6209 6.44C82.5409 6.34667 82.5009 6.18667 82.5009 5.96V5.04C82.5009 4.81333 82.5409 4.66 82.6209 4.58C82.7009 4.48667 82.8476 4.44 83.0609 4.44H84.1409V2.64C84.1409 2.41333 84.1809 2.26 84.2609 2.18C84.3409 2.08667 84.4876 2.04 84.7009 2.04H85.8809C86.1076 2.04 86.2609 2.08667 86.3409 2.18C86.4209 2.26 86.4609 2.41333 86.4609 2.64V4.44H88.1809C88.3943 4.44 88.5409 4.48667 88.6209 4.58C88.7009 4.66 88.7409 4.81333 88.7409 5.04V5.96C88.7409 6.18667 88.7009 6.34667 88.6209 6.44C88.5409 6.53333 88.3943 6.58 88.1809 6.58H86.4609V10.74C86.4609 11.34 86.5143 11.7733 86.6209 12.04C86.7276 12.2933 86.8876 12.4533 87.1009 12.52C87.3276 12.5867 87.6809 12.6133 88.1609 12.6C88.3743 12.5867 88.5209 12.62 88.6009 12.7C88.6943 12.78 88.7409 12.92 88.7409 13.12V14.16C88.7409 14.3867 88.6943 14.5467 88.6009 14.64C88.5209 14.7333 88.3743 14.7867 88.1609 14.8Z" fill="url(#paint8_linear_814_282)"/>
<path d="M94.3903 15.1C92.9903 15.1 91.9436 14.7133 91.2503 13.94C90.5703 13.1667 90.2303 12.1267 90.2303 10.82V8.46C90.2303 7.07333 90.5903 6.00667 91.3103 5.26C92.0303 4.51333 93.0636 4.14 94.4103 4.14C95.7703 4.14 96.797 4.52667 97.4903 5.3C98.197 6.07333 98.5503 7.06667 98.5503 8.28V9.5C98.5503 9.78 98.4836 9.99333 98.3503 10.14C98.2303 10.2867 98.017 10.36 97.7103 10.36H92.5303V11.1C92.5303 11.7533 92.6903 12.2533 93.0103 12.6C93.3303 12.9333 93.797 13.1 94.4103 13.1C94.9036 13.1 95.297 13.0133 95.5903 12.84C95.8836 12.6533 96.1236 12.3867 96.3103 12.04C96.4436 11.7733 96.597 11.64 96.7703 11.64C96.8903 11.64 97.0236 11.6867 97.1703 11.78L97.9103 12.18C98.177 12.34 98.3103 12.5267 98.3103 12.74C98.3103 12.8867 98.2636 13.0333 98.1703 13.18C97.837 13.7933 97.357 14.2667 96.7303 14.6C96.1036 14.9333 95.3236 15.1 94.3903 15.1ZM96.2703 8.58V8.14C96.2703 6.78 95.6503 6.1 94.4103 6.1C93.7836 6.1 93.3103 6.28 92.9903 6.64C92.6836 6.98667 92.5303 7.48667 92.5303 8.14V8.58H96.2703Z" fill="url(#paint9_linear_814_282)"/>
<path d="M103.394 14.82C103.181 14.82 103.014 14.78 102.894 14.7C102.774 14.62 102.681 14.4733 102.614 14.26L99.5541 5.16C99.5007 5.01333 99.4741 4.88 99.4741 4.76C99.4741 4.64 99.5141 4.56 99.5941 4.52C99.6874 4.46667 99.8274 4.44 100.014 4.44H101.014C101.321 4.44 101.541 4.48 101.674 4.56C101.807 4.64 101.907 4.80667 101.974 5.06L103.454 9.86C103.614 10.42 103.794 11.2 103.994 12.2H104.094C104.267 11.3333 104.441 10.5533 104.614 9.86L106.094 5.06C106.161 4.80667 106.247 4.64 106.354 4.56C106.461 4.48 106.681 4.44 107.014 4.44H107.994C108.194 4.44 108.334 4.46667 108.414 4.52C108.507 4.56 108.554 4.64 108.554 4.76C108.554 4.88 108.527 5.01333 108.474 5.16L105.354 14.26C105.287 14.4733 105.194 14.62 105.074 14.7C104.967 14.78 104.807 14.82 104.594 14.82H103.394Z" fill="url(#paint10_linear_814_282)"/>
<path d="M113.746 15.1C112.346 15.1 111.299 14.7133 110.606 13.94C109.926 13.1667 109.586 12.1267 109.586 10.82V8.46C109.586 7.07333 109.946 6.00667 110.666 5.26C111.386 4.51333 112.419 4.14 113.766 4.14C115.126 4.14 116.152 4.52667 116.846 5.3C117.552 6.07333 117.906 7.06667 117.906 8.28V9.5C117.906 9.78 117.839 9.99333 117.706 10.14C117.586 10.2867 117.372 10.36 117.066 10.36H111.886V11.1C111.886 11.7533 112.046 12.2533 112.366 12.6C112.686 12.9333 113.152 13.1 113.766 13.1C114.259 13.1 114.652 13.0133 114.946 12.84C115.239 12.6533 115.479 12.3867 115.666 12.04C115.799 11.7733 115.952 11.64 116.126 11.64C116.246 11.64 116.379 11.6867 116.526 11.78L117.266 12.18C117.532 12.34 117.666 12.5267 117.666 12.74C117.666 12.8867 117.619 13.0333 117.526 13.18C117.192 13.7933 116.712 14.2667 116.086 14.6C115.459 14.9333 114.679 15.1 113.746 15.1ZM115.626 8.58V8.14C115.626 6.78 115.006 6.1 113.766 6.1C113.139 6.1 112.666 6.28 112.346 6.64C112.039 6.98667 111.886 7.48667 111.886 8.14V8.58H115.626Z" fill="url(#paint11_linear_814_282)"/>
<path d="M119.99 5.5C119.79 5.5 119.663 5.46667 119.61 5.4C119.557 5.33333 119.543 5.20667 119.57 5.02L120.07 1.32C120.11 1.04 120.183 0.853333 120.29 0.76C120.41 0.653333 120.61 0.599999 120.89 0.599999H121.79C122.243 0.599999 122.47 0.74 122.47 1.02C122.47 1.1 122.45 1.2 122.41 1.32L121.19 4.88C121.11 5.12 121.017 5.28667 120.91 5.38C120.803 5.46 120.643 5.5 120.43 5.5H119.99Z" fill="url(#paint12_linear_814_282)"/>
<path d="M127.49 15.1C126.423 15.1 125.563 14.9067 124.91 14.52C124.256 14.1333 123.783 13.5267 123.49 12.7C123.436 12.54 123.41 12.4267 123.41 12.36C123.41 12.12 123.55 11.96 123.83 11.88L124.93 11.56C125.05 11.52 125.156 11.5 125.25 11.5C125.343 11.5 125.423 11.5333 125.49 11.6C125.556 11.6667 125.623 11.78 125.69 11.94C125.823 12.3267 126.036 12.6067 126.33 12.78C126.636 12.9533 127.023 13.04 127.49 13.04C128.636 13.04 129.21 12.6467 129.21 11.86C129.21 11.42 129.063 11.1133 128.77 10.94C128.49 10.7533 127.983 10.62 127.25 10.54C126.503 10.46 125.863 10.3267 125.33 10.14C124.81 9.95333 124.383 9.63333 124.05 9.18C123.73 8.72667 123.57 8.10667 123.57 7.32C123.57 6.36 123.91 5.59333 124.59 5.02C125.283 4.44667 126.236 4.16 127.45 4.16C128.463 4.16 129.27 4.34 129.87 4.7C130.47 5.06 130.923 5.58667 131.23 6.28C131.296 6.45333 131.33 6.59333 131.33 6.7C131.33 6.92667 131.196 7.08667 130.93 7.18L130.03 7.52C129.883 7.57333 129.763 7.6 129.67 7.6C129.576 7.6 129.496 7.57333 129.43 7.52C129.376 7.46667 129.316 7.36667 129.25 7.22C129.103 6.9 128.883 6.65333 128.59 6.48C128.31 6.29333 127.93 6.2 127.45 6.2C126.93 6.2 126.536 6.3 126.27 6.5C126.003 6.7 125.87 6.97333 125.87 7.32C125.87 7.77333 126.01 8.08 126.29 8.24C126.57 8.4 127.07 8.52 127.79 8.6C128.99 8.72 129.91 9.02 130.55 9.5C131.19 9.98 131.51 10.7533 131.51 11.82C131.51 12.82 131.163 13.62 130.47 14.22C129.776 14.8067 128.783 15.1 127.49 15.1Z" fill="url(#paint13_linear_814_282)"/>
<path d="M0.5 41.8C0.166667 41.8 0 41.6867 0 41.46C0 41.4067 0.0266667 41.3 0.08 41.14L4.62 28.14C4.7 27.9133 4.79333 27.7667 4.9 27.7C5.00667 27.62 5.17333 27.58 5.4 27.58H6.68C6.90667 27.58 7.07333 27.62 7.18 27.7C7.3 27.7667 7.4 27.9067 7.48 28.12L12 41.14C12.04 41.26 12.06 41.3667 12.06 41.46C12.06 41.6867 11.8933 41.8 11.56 41.8H10.36C10 41.8 9.74 41.76 9.58 41.68C9.43333 41.6 9.33333 41.44 9.28 41.2L8.48 38.66H3.5L2.7 41.2C2.63333 41.44 2.52667 41.6 2.38 41.68C2.23333 41.76 1.98667 41.8 1.64 41.8H0.5ZM7.8 36.54L6.54 32.36C6.27333 31.4133 6.11333 30.64 6.06 30.04H5.94C5.84667 30.7867 5.69333 31.56 5.48 32.36L4.2 36.54H7.8Z" fill="url(#paint14_linear_814_282)"/>
<path d="M14.4963 41.8C14.3096 41.8 14.1629 41.76 14.0563 41.68C13.9629 41.5867 13.9163 41.42 13.9163 41.18V28.2C13.9163 27.96 13.9629 27.8 14.0563 27.72C14.1496 27.64 14.2963 27.6 14.4963 27.6H15.8763C16.0629 27.6 16.1963 27.64 16.2763 27.72C16.3696 27.8 16.4163 27.96 16.4163 28.2V41.18C16.4163 41.42 16.3629 41.5867 16.2563 41.68C16.1629 41.76 16.0162 41.8 15.8162 41.8H14.4963Z" fill="url(#paint15_linear_814_282)"/>
<path d="M28.7572 42.1C27.0772 42.1 25.7705 41.64 24.8372 40.72C23.9172 39.7867 23.4572 38.5067 23.4572 36.88V32.5C23.4572 30.8867 23.9172 29.62 24.8372 28.7C25.7705 27.7667 27.0772 27.3 28.7572 27.3C31.3839 27.3 33.0705 28.4133 33.8172 30.64C33.8705 30.76 33.8972 30.88 33.8972 31C33.8972 31.2267 33.7439 31.3933 33.4372 31.5L32.2972 31.86C32.1772 31.9 32.0705 31.92 31.9772 31.92C31.8572 31.92 31.7639 31.8867 31.6972 31.82C31.6305 31.74 31.5639 31.6067 31.4972 31.42C31.2972 30.8067 30.9772 30.36 30.5372 30.08C30.0972 29.7867 29.5105 29.64 28.7772 29.64C26.9105 29.64 25.9772 30.5867 25.9772 32.48V36.9C25.9772 38.8067 26.9239 39.76 28.8172 39.76C29.5105 39.76 30.0705 39.6067 30.4972 39.3C30.9239 38.9933 31.2372 38.54 31.4372 37.94C31.5572 37.5933 31.7172 37.42 31.9172 37.42C31.9572 37.42 32.0705 37.4467 32.2572 37.5L33.4372 37.88C33.7439 37.9733 33.8972 38.1467 33.8972 38.4C33.8972 38.48 33.8772 38.5933 33.8372 38.74C33.0905 40.98 31.3972 42.1 28.7572 42.1Z" fill="url(#paint16_linear_814_282)"/>
<path d="M36.4223 41.8C36.249 41.8 36.129 41.7533 36.0623 41.66C36.009 41.5667 35.9823 41.4067 35.9823 41.18V27.62C35.9823 27.3933 36.009 27.2333 36.0623 27.14C36.129 27.0467 36.249 27 36.4223 27H37.8623C38.0223 27 38.1357 27.0467 38.2023 27.14C38.269 27.2333 38.3023 27.3933 38.3023 27.62V41.18C38.3023 41.4067 38.269 41.5667 38.2023 41.66C38.1357 41.7533 38.0223 41.8 37.8623 41.8H36.4223Z" fill="url(#paint17_linear_814_282)"/>
<path d="M44.4814 42.1C43.0681 42.1 42.0414 41.84 41.4014 41.32C40.7614 40.8 40.4414 39.9733 40.4414 38.84C40.4414 37.72 40.7547 36.9133 41.3814 36.42C42.0214 35.9267 43.0681 35.68 44.5214 35.68C44.8147 35.68 45.1081 35.6933 45.4014 35.72C45.6947 35.7333 45.9281 35.7533 46.1014 35.78V34.98C46.1014 34.3133 45.9814 33.8467 45.7414 33.58C45.5014 33.3133 45.0814 33.18 44.4814 33.18C43.6414 33.18 43.0547 33.5133 42.7214 34.18C42.5881 34.4333 42.4281 34.56 42.2414 34.56C42.1481 34.56 42.0347 34.5267 41.9014 34.46L41.1814 34.12C40.9014 34 40.7614 33.84 40.7614 33.64C40.7614 33.52 40.7947 33.3933 40.8614 33.26C41.5414 31.8467 42.7481 31.14 44.4814 31.14C45.8947 31.14 46.9014 31.4733 47.5014 32.14C48.1014 32.8067 48.4014 33.7867 48.4014 35.08V40.44C48.4014 40.7867 48.3547 41.0333 48.2614 41.18C48.1814 41.3267 48.0147 41.46 47.7614 41.58C47.0281 41.9267 45.9347 42.1 44.4814 42.1ZM42.7414 38.84C42.7414 39.3067 42.8681 39.6467 43.1214 39.86C43.3881 40.0733 43.7947 40.18 44.3414 40.18C45.0347 40.18 45.5681 40.1267 45.9414 40.02C46.0081 39.9933 46.0481 39.9667 46.0614 39.94C46.0881 39.9 46.1014 39.8333 46.1014 39.74V37.58C45.9947 37.58 45.7481 37.5667 45.3614 37.54C44.9881 37.5133 44.6614 37.5 44.3814 37.5C43.8214 37.5 43.4081 37.6133 43.1414 37.84C42.8747 38.0533 42.7414 38.3867 42.7414 38.84Z" fill="url(#paint18_linear_814_282)"/>
<path d="M51.3442 41.8C51.1576 41.8 51.0242 41.7533 50.9442 41.66C50.8642 41.5667 50.8242 41.4067 50.8242 41.18V33.1C50.8242 32.7667 50.8642 32.52 50.9442 32.36C51.0376 32.2 51.2176 32.0667 51.4842 31.96C52.3109 31.6133 53.4309 31.44 54.8442 31.44H55.7842C55.9842 31.44 56.1242 31.48 56.2042 31.56C56.2842 31.64 56.3242 31.78 56.3242 31.98V32.94C56.3242 33.1667 56.2842 33.3267 56.2042 33.42C56.1242 33.5 55.9842 33.54 55.7842 33.54H54.7242C54.1642 33.54 53.6909 33.6133 53.3042 33.76C53.1976 33.8267 53.1442 33.9267 53.1442 34.06V41.18C53.1442 41.4067 53.1042 41.5667 53.0242 41.66C52.9442 41.7533 52.8042 41.8 52.6042 41.8H51.3442Z" fill="url(#paint19_linear_814_282)"/>
<path d="M58.5736 41.8C58.3469 41.8 58.1869 41.7533 58.0936 41.66C58.0003 41.5667 57.9536 41.4067 57.9536 41.18V32.04C57.9536 31.8133 58.0003 31.66 58.0936 31.58C58.1869 31.4867 58.3469 31.44 58.5736 31.44H59.6536C59.8803 31.44 60.0403 31.4867 60.1336 31.58C60.2269 31.66 60.2736 31.8133 60.2736 32.04V41.18C60.2736 41.4067 60.2269 41.5667 60.1336 41.66C60.0403 41.7533 59.8803 41.8 59.6536 41.8H58.5736ZM57.8136 28.46C57.8136 28.0467 57.8736 27.7667 57.9936 27.62C58.1269 27.46 58.3669 27.38 58.7136 27.38H59.4936C59.8403 27.38 60.0736 27.46 60.1936 27.62C60.3269 27.7667 60.3936 28.0467 60.3936 28.46V28.76C60.3936 29.1867 60.3269 29.4733 60.1936 29.62C60.0736 29.7667 59.8403 29.84 59.4936 29.84H58.7136C58.3669 29.84 58.1269 29.7667 57.9936 29.62C57.8736 29.4733 57.8136 29.1867 57.8136 28.76V28.46Z" fill="url(#paint20_linear_814_282)"/>
<path d="M67.5555 41.8C66.5555 41.84 65.7688 41.7667 65.1955 41.58C64.6355 41.3933 64.2155 41.0133 63.9355 40.44C63.6688 39.8667 63.5355 39.0067 63.5355 37.86V33.58H62.4555C62.2421 33.58 62.0955 33.5333 62.0155 33.44C61.9355 33.3467 61.8955 33.1867 61.8955 32.96V32.04C61.8955 31.8133 61.9355 31.66 62.0155 31.58C62.0955 31.4867 62.2421 31.44 62.4555 31.44H63.5355V29.64C63.5355 29.4133 63.5755 29.26 63.6555 29.18C63.7355 29.0867 63.8821 29.04 64.0955 29.04H65.2755C65.5021 29.04 65.6555 29.0867 65.7355 29.18C65.8155 29.26 65.8555 29.4133 65.8555 29.64V31.44H67.5755C67.7888 31.44 67.9355 31.4867 68.0155 31.58C68.0955 31.66 68.1355 31.8133 68.1355 32.04V32.96C68.1355 33.1867 68.0955 33.3467 68.0155 33.44C67.9355 33.5333 67.7888 33.58 67.5755 33.58H65.8555V37.74C65.8555 38.34 65.9088 38.7733 66.0155 39.04C66.1221 39.2933 66.2821 39.4533 66.4955 39.52C66.7221 39.5867 67.0755 39.6133 67.5555 39.6C67.7688 39.5867 67.9155 39.62 67.9955 39.7C68.0888 39.78 68.1355 39.92 68.1355 40.12V41.16C68.1355 41.3867 68.0888 41.5467 67.9955 41.64C67.9155 41.7333 67.7688 41.7867 67.5555 41.8Z" fill="url(#paint21_linear_814_282)"/>
<path d="M73.9448 46.52C72.1315 46.52 70.8715 45.8733 70.1648 44.58C70.0715 44.4333 70.0248 44.2867 70.0248 44.14C70.0248 43.9267 70.1515 43.7533 70.4048 43.62L71.2448 43.18C71.4048 43.1 71.5382 43.06 71.6448 43.06C71.8048 43.06 71.9648 43.1933 72.1248 43.46C72.4582 44.1133 73.0515 44.44 73.9048 44.44C74.5182 44.44 74.9648 44.2667 75.2448 43.92C75.5248 43.5867 75.6648 43.06 75.6648 42.34V41.32C75.0515 41.5067 74.3915 41.6 73.6848 41.6C72.4182 41.6 71.4715 41.2533 70.8448 40.56C70.2182 39.8667 69.9048 38.8733 69.9048 37.58V32.04C69.9048 31.8133 69.9448 31.66 70.0248 31.58C70.1048 31.4867 70.2515 31.44 70.4648 31.44H71.6448C71.8715 31.44 72.0248 31.4867 72.1048 31.58C72.1848 31.66 72.2248 31.8133 72.2248 32.04V37.5C72.2248 38.18 72.3648 38.68 72.6448 39C72.9248 39.32 73.3782 39.48 74.0048 39.48C74.6182 39.48 75.1648 39.3867 75.6448 39.2V32.04C75.6448 31.8133 75.6848 31.66 75.7648 31.58C75.8448 31.4867 75.9915 31.44 76.2048 31.44H77.4048C77.6182 31.44 77.7648 31.4867 77.8448 31.58C77.9248 31.66 77.9648 31.8133 77.9648 32.04V42.14C77.9648 43.5133 77.6382 44.5867 76.9848 45.36C76.3448 46.1333 75.3315 46.52 73.9448 46.52Z" fill="url(#paint22_linear_814_282)"/>
<defs>
<linearGradient id="paint0_linear_814_282" x1="15.4323" y1="-3.25418e-06" x2="86.7062" y2="87.5238" gradientUnits="userSpaceOnUse">
<stop stop-color="#860471"/>
<stop offset="1" stop-color="#6368DA"/>
</linearGradient>
<linearGradient id="paint1_linear_814_282" x1="15.4323" y1="-3.25418e-06" x2="86.7062" y2="87.5238" gradientUnits="userSpaceOnUse">
<stop stop-color="#860471"/>
<stop offset="1" stop-color="#6368DA"/>
</linearGradient>
<linearGradient id="paint2_linear_814_282" x1="15.4323" y1="-3.25418e-06" x2="86.7062" y2="87.5238" gradientUnits="userSpaceOnUse">
<stop stop-color="#860471"/>
<stop offset="1" stop-color="#6368DA"/>
</linearGradient>
<linearGradient id="paint3_linear_814_282" x1="15.4323" y1="-3.25418e-06" x2="86.7062" y2="87.5238" gradientUnits="userSpaceOnUse">
<stop stop-color="#860471"/>
<stop offset="1" stop-color="#6368DA"/>
</linearGradient>
<linearGradient id="paint4_linear_814_282" x1="15.4323" y1="-3.25418e-06" x2="86.7062" y2="87.5238" gradientUnits="userSpaceOnUse">
<stop stop-color="#860471"/>
<stop offset="1" stop-color="#6368DA"/>
</linearGradient>
<linearGradient id="paint5_linear_814_282" x1="15.4323" y1="-3.25418e-06" x2="86.7062" y2="87.5238" gradientUnits="userSpaceOnUse">
<stop stop-color="#860471"/>
<stop offset="1" stop-color="#6368DA"/>
</linearGradient>
<linearGradient id="paint6_linear_814_282" x1="15.4323" y1="-3.25418e-06" x2="86.7062" y2="87.5238" gradientUnits="userSpaceOnUse">
<stop stop-color="#860471"/>
<stop offset="1" stop-color="#6368DA"/>
</linearGradient>
<linearGradient id="paint7_linear_814_282" x1="15.4323" y1="-3.25418e-06" x2="86.7062" y2="87.5238" gradientUnits="userSpaceOnUse">
<stop stop-color="#860471"/>
<stop offset="1" stop-color="#6368DA"/>
</linearGradient>
<linearGradient id="paint8_linear_814_282" x1="15.4323" y1="-3.25418e-06" x2="86.7062" y2="87.5238" gradientUnits="userSpaceOnUse">
<stop stop-color="#860471"/>
<stop offset="1" stop-color="#6368DA"/>
</linearGradient>
<linearGradient id="paint9_linear_814_282" x1="15.4323" y1="-3.25418e-06" x2="86.7062" y2="87.5238" gradientUnits="userSpaceOnUse">
<stop stop-color="#860471"/>
<stop offset="1" stop-color="#6368DA"/>
</linearGradient>
<linearGradient id="paint10_linear_814_282" x1="15.4323" y1="-3.25418e-06" x2="86.7062" y2="87.5238" gradientUnits="userSpaceOnUse">
<stop stop-color="#860471"/>
<stop offset="1" stop-color="#6368DA"/>
</linearGradient>
<linearGradient id="paint11_linear_814_282" x1="15.4323" y1="-3.25418e-06" x2="86.7062" y2="87.5238" gradientUnits="userSpaceOnUse">
<stop stop-color="#860471"/>
<stop offset="1" stop-color="#6368DA"/>
</linearGradient>
<linearGradient id="paint12_linear_814_282" x1="15.4323" y1="-3.25418e-06" x2="86.7062" y2="87.5238" gradientUnits="userSpaceOnUse">
<stop stop-color="#860471"/>
<stop offset="1" stop-color="#6368DA"/>
</linearGradient>
<linearGradient id="paint13_linear_814_282" x1="15.4323" y1="-3.25418e-06" x2="86.7062" y2="87.5238" gradientUnits="userSpaceOnUse">
<stop stop-color="#860471"/>
<stop offset="1" stop-color="#6368DA"/>
</linearGradient>
<linearGradient id="paint14_linear_814_282" x1="15.4323" y1="-3.25418e-06" x2="86.7062" y2="87.5238" gradientUnits="userSpaceOnUse">
<stop stop-color="#860471"/>
<stop offset="1" stop-color="#6368DA"/>
</linearGradient>
<linearGradient id="paint15_linear_814_282" x1="15.4323" y1="-3.25418e-06" x2="86.7062" y2="87.5238" gradientUnits="userSpaceOnUse">
<stop stop-color="#860471"/>
<stop offset="1" stop-color="#6368DA"/>
</linearGradient>
<linearGradient id="paint16_linear_814_282" x1="15.4323" y1="-3.25418e-06" x2="86.7062" y2="87.5238" gradientUnits="userSpaceOnUse">
<stop stop-color="#860471"/>
<stop offset="1" stop-color="#6368DA"/>
</linearGradient>
<linearGradient id="paint17_linear_814_282" x1="15.4323" y1="-3.25418e-06" x2="86.7062" y2="87.5238" gradientUnits="userSpaceOnUse">
<stop stop-color="#860471"/>
<stop offset="1" stop-color="#6368DA"/>
</linearGradient>
<linearGradient id="paint18_linear_814_282" x1="15.4323" y1="-3.25418e-06" x2="86.7062" y2="87.5238" gradientUnits="userSpaceOnUse">
<stop stop-color="#860471"/>
<stop offset="1" stop-color="#6368DA"/>
</linearGradient>
<linearGradient id="paint19_linear_814_282" x1="15.4323" y1="-3.25418e-06" x2="86.7062" y2="87.5238" gradientUnits="userSpaceOnUse">
<stop stop-color="#860471"/>
<stop offset="1" stop-color="#6368DA"/>
</linearGradient>
<linearGradient id="paint20_linear_814_282" x1="15.4323" y1="-3.25418e-06" x2="86.7062" y2="87.5238" gradientUnits="userSpaceOnUse">
<stop stop-color="#860471"/>
<stop offset="1" stop-color="#6368DA"/>
</linearGradient>
<linearGradient id="paint21_linear_814_282" x1="15.4323" y1="-3.25418e-06" x2="86.7062" y2="87.5238" gradientUnits="userSpaceOnUse">
<stop stop-color="#860471"/>
<stop offset="1" stop-color="#6368DA"/>
</linearGradient>
<linearGradient id="paint22_linear_814_282" x1="15.4323" y1="-3.25418e-06" x2="86.7062" y2="87.5238" gradientUnits="userSpaceOnUse">
<stop stop-color="#860471"/>
<stop offset="1" stop-color="#6368DA"/>
</linearGradient>
</defs>
</svg>
